<svg width="1440" height="938" viewBox="0 0 1440 938" fill="none" xmlns="http://www.w3.org/2000/svg">
<g clip-path="url(#clip0_101_91)">
<path d="M-380.595 243.527L-291.203 295.446C-201.666 348.531 -23.0966 450.622 146.201 477.859C315.283 503.348 475.094 453.982 642.227 463.742C809.505 474.668 984.467 547.633 1147.89 527.394C1311.3 507.154 1463.18 393.71 1539.12 336.988L1615.05 280.266L1695.86 932.697L1614.15 942.817C1532.44 952.937 1369.02 973.176 1205.6 993.416C1042.18 1013.66 878.766 1033.9 715.348 1054.13C551.93 1074.37 388.512 1094.61 225.094 1114.85C61.6759 1135.09 -101.742 1155.33 -183.451 1165.45L-265.16 1175.57L-380.595 243.527Z" fill="#2D7EE8"/>
</g>
<defs>
<clipPath id="clip0_101_91">
<rect width="1976" height="939.166" fill="white" transform="translate(-380.595 243.527) rotate(-7.0602)"/>
</clipPath>
</defs>
</svg>
