<svg width="121" height="48" viewBox="0 0 121 48" fill="none" xmlns="http://www.w3.org/2000/svg">
<path d="M9.75 14.94C11.97 14.94 13.91 15.38 15.57 16.26C17.23 17.14 18.51 18.38 19.41 19.98C20.33 21.56 20.79 23.39 20.79 25.47C20.79 27.53 20.33 29.36 19.41 30.96C18.51 32.56 17.22 33.8 15.54 34.68C13.88 35.56 11.95 36 9.75 36H1.86V14.94H9.75ZM9.42 31.56C11.36 31.56 12.87 31.03 13.95 29.97C15.03 28.91 15.57 27.41 15.57 25.47C15.57 23.53 15.03 22.02 13.95 20.94C12.87 19.86 11.36 19.32 9.42 19.32H6.99V31.56H9.42ZM31.8769 36.24C30.2369 36.24 28.7569 35.89 27.4369 35.19C26.1369 34.49 25.1069 33.49 24.3469 32.19C23.6069 30.89 23.2369 29.37 23.2369 27.63C23.2369 25.91 23.6169 24.4 24.3769 23.1C25.1369 21.78 26.1769 20.77 27.4969 20.07C28.8169 19.37 30.2969 19.02 31.9369 19.02C33.5769 19.02 35.0569 19.37 36.3769 20.07C37.6969 20.77 38.7369 21.78 39.4969 23.1C40.2569 24.4 40.6369 25.91 40.6369 27.63C40.6369 29.35 40.2469 30.87 39.4669 32.19C38.7069 33.49 37.6569 34.49 36.3169 35.19C34.9969 35.89 33.5169 36.24 31.8769 36.24ZM31.8769 31.8C32.8569 31.8 33.6869 31.44 34.3669 30.72C35.0669 30 35.4169 28.97 35.4169 27.63C35.4169 26.29 35.0769 25.26 34.3969 24.54C33.7369 23.82 32.9169 23.46 31.9369 23.46C30.9369 23.46 30.1069 23.82 29.4469 24.54C28.7869 25.24 28.4569 26.27 28.4569 27.63C28.4569 28.97 28.7769 30 29.4169 30.72C30.0769 31.44 30.8969 31.8 31.8769 31.8ZM42.9384 27.6C42.9384 25.88 43.2584 24.37 43.8984 23.07C44.5584 21.77 45.4484 20.77 46.5684 20.07C47.6884 19.37 48.9384 19.02 50.3184 19.02C51.4984 19.02 52.5284 19.26 53.4084 19.74C54.3084 20.22 54.9984 20.85 55.4784 21.63V19.26H60.6084V36H55.4784V33.63C54.9784 34.41 54.2784 35.04 53.3784 35.52C52.4984 36 51.4684 36.24 50.2884 36.24C48.9284 36.24 47.6884 35.89 46.5684 35.19C45.4484 34.47 44.5584 33.46 43.8984 32.16C43.2584 30.84 42.9384 29.32 42.9384 27.6ZM55.4784 27.63C55.4784 26.35 55.1184 25.34 54.3984 24.6C53.6984 23.86 52.8384 23.49 51.8184 23.49C50.7984 23.49 49.9284 23.86 49.2084 24.6C48.5084 25.32 48.1584 26.32 48.1584 27.6C48.1584 28.88 48.5084 29.9 49.2084 30.66C49.9284 31.4 50.7984 31.77 51.8184 31.77C52.8384 31.77 53.6984 31.4 54.3984 30.66C55.1184 29.92 55.4784 28.91 55.4784 27.63Z" fill="#333333"/>
<path d="M84.6898 14.94L77.2198 36H70.7998L63.3298 14.94H68.7898L74.0098 30.84L79.2598 14.94H84.6898ZM86.4138 27.6C86.4138 25.88 86.7338 24.37 87.3738 23.07C88.0338 21.77 88.9238 20.77 90.0438 20.07C91.1638 19.37 92.4138 19.02 93.7938 19.02C94.9738 19.02 96.0038 19.26 96.8838 19.74C97.7838 20.22 98.4738 20.85 98.9538 21.63V19.26H104.084V36H98.9538V33.63C98.4538 34.41 97.7538 35.04 96.8538 35.52C95.9738 36 94.9438 36.24 93.7638 36.24C92.4038 36.24 91.1638 35.89 90.0438 35.19C88.9238 34.47 88.0338 33.46 87.3738 32.16C86.7338 30.84 86.4138 29.32 86.4138 27.6ZM98.9538 27.63C98.9538 26.35 98.5938 25.34 97.8738 24.6C97.1738 23.86 96.3138 23.49 95.2938 23.49C94.2738 23.49 93.4038 23.86 92.6838 24.6C91.9838 25.32 91.6338 26.32 91.6338 27.6C91.6338 28.88 91.9838 29.9 92.6838 30.66C93.4038 31.4 94.2738 31.77 95.2938 31.77C96.3138 31.77 97.1738 31.4 97.8738 30.66C98.5938 29.92 98.9538 28.91 98.9538 27.63ZM110.975 17.52C110.075 17.52 109.335 17.26 108.755 16.74C108.195 16.2 107.915 15.54 107.915 14.76C107.915 13.96 108.195 13.3 108.755 12.78C109.335 12.24 110.075 11.97 110.975 11.97C111.855 11.97 112.575 12.24 113.135 12.78C113.715 13.3 114.005 13.96 114.005 14.76C114.005 15.54 113.715 16.2 113.135 16.74C112.575 17.26 111.855 17.52 110.975 17.52ZM113.525 19.26V36H108.395V19.26H113.525Z" fill="#73D2D2"/>
<path d="M119.027 5.53908C118.766 4.9329 118.388 4.38359 117.916 3.92189C117.444 3.45881 116.887 3.09082 116.275 2.8379C115.642 2.57461 114.962 2.43984 114.275 2.44142C113.312 2.44142 112.373 2.70509 111.557 3.20314C111.361 3.32228 111.176 3.45314 111 3.59572C110.824 3.45314 110.639 3.32228 110.443 3.20314C109.627 2.70509 108.687 2.44142 107.725 2.44142C107.031 2.44142 106.359 2.57423 105.725 2.8379C105.111 3.09181 104.559 3.45705 104.084 3.92189C103.611 4.38306 103.234 4.93251 102.973 5.53908C102.701 6.16994 102.562 6.83986 102.562 7.52931C102.562 8.1797 102.695 8.85744 102.959 9.54689C103.18 10.1231 103.496 10.7207 103.9 11.3242C104.541 12.2793 105.422 13.2754 106.516 14.2852C108.328 15.959 110.123 17.1152 110.199 17.1621L110.662 17.459C110.867 17.5899 111.131 17.5899 111.336 17.459L111.799 17.1621C111.875 17.1133 113.668 15.959 115.482 14.2852C116.576 13.2754 117.457 12.2793 118.098 11.3242C118.502 10.7207 118.82 10.1231 119.039 9.54689C119.303 8.85744 119.436 8.1797 119.436 7.52931C119.438 6.83986 119.299 6.16994 119.027 5.53908Z" fill="#73D2D2"/>
</svg>
